<svg xmlns="http://www.w3.org/2000/svg" width="1000" height="444" viewBox="0 0 1000 444">
<rect width="100%" height="100%" fill="#fbfaf7"/>
<text x="32" y="38" font-family="Arial, sans-serif" font-size="24" font-weight="700" fill="#1f2933">Statistical Backing Readiness</text>
<text x="32" y="66" font-family="Arial, sans-serif" font-size="14" fill="#52616b">Effect sizes for ok checks; skipped rows mark evidence gaps</text>
<text x="351" y="122" text-anchor="end" font-family="Arial, sans-serif" font-size="12" fill="#1f2933">chi square sentiment category</text>
<rect x="365" y="107" width="76.80" height="20" rx="3" fill="#5b6c94"/>
<text x="449.80391637694845" y="122" font-family="Arial, sans-serif" font-size="12" fill="#1f2933">effect=0.138</text>
<text x="351" y="164" text-anchor="end" font-family="Arial, sans-serif" font-size="12" fill="#1f2933">cluster bootstrap poi mean difference sentiment scor</text>
<rect x="365" y="149" width="162.66" height="20" rx="3" fill="#5b6c94"/>
<text x="535.6586909173652" y="164" font-family="Arial, sans-serif" font-size="12" fill="#1f2933">effect=0.293</text>
<text x="351" y="206" text-anchor="end" font-family="Arial, sans-serif" font-size="12" fill="#1f2933">poi level welch t mean review rating</text>
<rect x="365" y="191" width="148.40" height="20" rx="3" fill="#5b6c94"/>
<text x="521.3968016469248" y="206" font-family="Arial, sans-serif" font-size="12" fill="#1f2933">effect=0.267</text>
<text x="351" y="248" text-anchor="end" font-family="Arial, sans-serif" font-size="12" fill="#1f2933">cross source sentiment category independence</text>
<rect x="365" y="233" width="113.01" height="20" rx="3" fill="#5b6c94"/>
<text x="486.0085925050253" y="248" font-family="Arial, sans-serif" font-size="12" fill="#1f2933">effect=0.204</text>
<text x="351" y="290" text-anchor="end" font-family="Arial, sans-serif" font-size="12" fill="#1f2933">within chinese platform sentiment category independe</text>
<rect x="365" y="275" width="28.07" height="20" rx="3" fill="#5b6c94"/>
<text x="401.07347133071534" y="290" font-family="Arial, sans-serif" font-size="12" fill="#1f2933">effect=0.051</text>
<text x="351" y="332" text-anchor="end" font-family="Arial, sans-serif" font-size="12" fill="#1f2933">cross source friction prevalence not run</text>
<rect x="365" y="317" width="99.90" height="20" rx="3" fill="#8d99ae"/>
<text x="472.9" y="332" font-family="Arial, sans-serif" font-size="12" fill="#1f2933">skipped</text>
<text x="351" y="374" text-anchor="end" font-family="Arial, sans-serif" font-size="12" fill="#1f2933">cross source enjoyment recommendation prevalence not</text>
<rect x="365" y="359" width="99.90" height="20" rx="3" fill="#8d99ae"/>
<text x="472.9" y="374" font-family="Arial, sans-serif" font-size="12" fill="#1f2933">skipped</text>
</svg>