<svg xmlns="http://www.w3.org/2000/svg" width="1000" height="618" viewBox="0 0 1000 618">
<rect width="100%" height="100%" fill="#fbfaf7"/>
<text x="32" y="38" font-family="Arial, sans-serif" font-size="24" font-weight="700" fill="#1f2933">Chinese Topic Evidence by Sentiment</text>
<text x="32" y="66" font-family="Arial, sans-serif" font-size="14" fill="#52616b">Topic keyword matches across n=149 rows; positive n=117, negative n=30</text>
<text x="266" y="126" text-anchor="end" font-family="Arial, sans-serif" font-size="13" fill="#1f2933">Temples / Spiritual</text>
<rect x="280" y="107" width="640.00" height="14" rx="3" fill="#2f6f73"/>
<rect x="280" y="125" width="99.31" height="14" rx="3" fill="#9a031e"/>
<text x="928.0" y="119" font-family="Arial, sans-serif" font-size="11" fill="#1f2933">58</text>
<text x="387.3103448275862" y="137" font-family="Arial, sans-serif" font-size="11" fill="#1f2933">9</text>
<text x="266" y="172" text-anchor="end" font-family="Arial, sans-serif" font-size="13" fill="#1f2933">History / Culture</text>
<rect x="280" y="153" width="540.69" height="14" rx="3" fill="#2f6f73"/>
<rect x="280" y="171" width="66.21" height="14" rx="3" fill="#9a031e"/>
<text x="828.6896551724138" y="165" font-family="Arial, sans-serif" font-size="11" fill="#1f2933">49</text>
<text x="354.2068965517241" y="183" font-family="Arial, sans-serif" font-size="11" fill="#1f2933">6</text>
<text x="266" y="218" text-anchor="end" font-family="Arial, sans-serif" font-size="13" fill="#1f2933">Scenic Nature</text>
<rect x="280" y="199" width="496.55" height="14" rx="3" fill="#2f6f73"/>
<rect x="280" y="217" width="55.17" height="14" rx="3" fill="#9a031e"/>
<text x="784.551724137931" y="211" font-family="Arial, sans-serif" font-size="11" fill="#1f2933">45</text>
<text x="343.17241379310343" y="229" font-family="Arial, sans-serif" font-size="11" fill="#1f2933">5</text>
<text x="266" y="264" text-anchor="end" font-family="Arial, sans-serif" font-size="13" fill="#1f2933">Fan Pilgrimage / Pop Culture</text>
<rect x="280" y="245" width="353.10" height="14" rx="3" fill="#2f6f73"/>
<rect x="280" y="263" width="154.48" height="14" rx="3" fill="#9a031e"/>
<text x="641.1034482758621" y="257" font-family="Arial, sans-serif" font-size="11" fill="#1f2933">32</text>
<text x="442.48275862068965" y="275" font-family="Arial, sans-serif" font-size="11" fill="#1f2933">14</text>
<text x="266" y="310" text-anchor="end" font-family="Arial, sans-serif" font-size="13" fill="#1f2933">Hot Springs / Relaxation</text>
<rect x="280" y="291" width="342.07" height="14" rx="3" fill="#2f6f73"/>
<rect x="280" y="309" width="66.21" height="14" rx="3" fill="#9a031e"/>
<text x="630.0689655172414" y="303" font-family="Arial, sans-serif" font-size="11" fill="#1f2933">31</text>
<text x="354.2068965517241" y="321" font-family="Arial, sans-serif" font-size="11" fill="#1f2933">6</text>
<text x="266" y="356" text-anchor="end" font-family="Arial, sans-serif" font-size="13" fill="#1f2933">Food / Local Cuisine</text>
<rect x="280" y="337" width="320.00" height="14" rx="3" fill="#2f6f73"/>
<rect x="280" y="355" width="88.28" height="14" rx="3" fill="#9a031e"/>
<text x="608.0" y="349" font-family="Arial, sans-serif" font-size="11" fill="#1f2933">29</text>
<text x="376.2758620689655" y="367" font-family="Arial, sans-serif" font-size="11" fill="#1f2933">8</text>
<text x="266" y="402" text-anchor="end" font-family="Arial, sans-serif" font-size="13" fill="#1f2933">Accommodation</text>
<rect x="280" y="383" width="231.72" height="14" rx="3" fill="#2f6f73"/>
<rect x="280" y="401" width="66.21" height="14" rx="3" fill="#9a031e"/>
<text x="519.7241379310344" y="395" font-family="Arial, sans-serif" font-size="11" fill="#1f2933">21</text>
<text x="354.2068965517241" y="413" font-family="Arial, sans-serif" font-size="11" fill="#1f2933">6</text>
<text x="266" y="448" text-anchor="end" font-family="Arial, sans-serif" font-size="13" fill="#1f2933">Seasonal Events</text>
<rect x="280" y="429" width="231.72" height="14" rx="3" fill="#2f6f73"/>
<rect x="280" y="447" width="44.14" height="14" rx="3" fill="#9a031e"/>
<text x="519.7241379310344" y="441" font-family="Arial, sans-serif" font-size="11" fill="#1f2933">21</text>
<text x="332.1379310344828" y="459" font-family="Arial, sans-serif" font-size="11" fill="#1f2933">4</text>
<text x="266" y="494" text-anchor="end" font-family="Arial, sans-serif" font-size="13" fill="#1f2933">Crafts / Shopping</text>
<rect x="280" y="475" width="220.69" height="14" rx="3" fill="#2f6f73"/>
<rect x="280" y="493" width="44.14" height="14" rx="3" fill="#9a031e"/>
<text x="508.68965517241384" y="487" font-family="Arial, sans-serif" font-size="11" fill="#1f2933">20</text>
<text x="332.1379310344828" y="505" font-family="Arial, sans-serif" font-size="11" fill="#1f2933">4</text>
<text x="266" y="540" text-anchor="end" font-family="Arial, sans-serif" font-size="13" fill="#1f2933">Dinosaurs / Museums</text>
<rect x="280" y="521" width="231.72" height="14" rx="3" fill="#2f6f73"/>
<rect x="280" y="539" width="11.03" height="14" rx="3" fill="#9a031e"/>
<text x="519.7241379310344" y="533" font-family="Arial, sans-serif" font-size="11" fill="#1f2933">21</text>
<text x="299.0344827586207" y="551" font-family="Arial, sans-serif" font-size="11" fill="#1f2933">1</text>
<rect x="280" y="580" width="10" height="10" fill="#2f6f73"/>
<text x="296" y="590" font-family="Arial, sans-serif" font-size="12" fill="#52616b">positive SnowNLP rows</text>
<rect x="470" y="580" width="10" height="10" fill="#9a031e"/>
<text x="486" y="590" font-family="Arial, sans-serif" font-size="12" fill="#52616b">negative SnowNLP rows</text>
</svg>