<svg xmlns="http://www.w3.org/2000/svg" width="1000" height="386" viewBox="0 0 1000 386">
<rect width="100%" height="100%" fill="#fbfaf7"/>
<text x="32" y="38" font-family="Arial, sans-serif" font-size="24" font-weight="700" fill="#1f2933">Japanese-Language Reviews Tourism Priority Mix</text>
<text x="32" y="66" font-family="Arial, sans-serif" font-size="14" fill="#52616b">Google review POI-category distribution; n=1,800 rows</text>
<text x="256" y="123" text-anchor="end" font-family="Arial, sans-serif" font-size="13" fill="#1f2933">museum cultural</text>
<rect x="270" y="108" width="640.00" height="20" rx="3" fill="#5b6c94"/>
<text x="918.0" y="123" font-family="Arial, sans-serif" font-size="12" fill="#1f2933">567 (31.5%)</text>
<text x="256" y="161" text-anchor="end" font-family="Arial, sans-serif" font-size="13" fill="#1f2933">castle historic</text>
<rect x="270" y="146" width="547.44" height="20" rx="3" fill="#5b6c94"/>
<text x="825.4426807760141" y="161" font-family="Arial, sans-serif" font-size="12" fill="#1f2933">485 (26.9%)</text>
<text x="256" y="199" text-anchor="end" font-family="Arial, sans-serif" font-size="13" fill="#1f2933">temple shrine</text>
<rect x="270" y="184" width="397.32" height="20" rx="3" fill="#5b6c94"/>
<text x="675.3192239858906" y="199" font-family="Arial, sans-serif" font-size="12" fill="#1f2933">352 (19.6%)</text>
<text x="256" y="237" text-anchor="end" font-family="Arial, sans-serif" font-size="13" fill="#1f2933">nature scenic</text>
<rect x="270" y="222" width="378.13" height="20" rx="3" fill="#5b6c94"/>
<text x="656.1305114638449" y="237" font-family="Arial, sans-serif" font-size="12" fill="#1f2933">335 (18.6%)</text>
<text x="256" y="275" text-anchor="end" font-family="Arial, sans-serif" font-size="13" fill="#1f2933">market shopping</text>
<rect x="270" y="260" width="56.44" height="20" rx="3" fill="#5b6c94"/>
<text x="334.4373897707231" y="275" font-family="Arial, sans-serif" font-size="12" fill="#1f2933">50 (2.8%)</text>
<text x="256" y="313" text-anchor="end" font-family="Arial, sans-serif" font-size="13" fill="#1f2933">food dining</text>
<rect x="270" y="298" width="12.42" height="20" rx="3" fill="#5b6c94"/>
<text x="290.4162257495591" y="313" font-family="Arial, sans-serif" font-size="12" fill="#1f2933">11 (0.6%)</text>
</svg>