<svg xmlns="http://www.w3.org/2000/svg" width="1160" height="450" viewBox="0 0 1160 450">
<rect width="100%" height="100%" fill="#fbfaf7"/>
<text x="24.00" y="38.00" text-anchor="start" font-family="Arial, sans-serif" font-size="34" font-weight="700" fill="#172033">Nudge-Able Information Levers</text>
<text x="24.00" y="67.00" text-anchor="start" font-family="Arial, sans-serif" font-size="20" font-weight="400" fill="#5b677a">Prevalence and adjusted low-rating association for six friction aspects</text>
<line x1="335.00" x2="335.00" y1="78.00" y2="357.00" stroke="#d7dde8" opacity="0.55"/>
<text x="335.00" y="382.00" text-anchor="middle" font-family="Arial, sans-serif" font-size="17" font-weight="400" fill="#5b677a">0.0%</text>
<line x1="610.00" x2="610.00" y1="78.00" y2="357.00" stroke="#d7dde8" opacity="0.55"/>
<text x="610.00" y="382.00" text-anchor="middle" font-family="Arial, sans-serif" font-size="17" font-weight="400" fill="#5b677a">1.3%</text>
<line x1="885.00" x2="885.00" y1="78.00" y2="357.00" stroke="#d7dde8" opacity="0.55"/>
<text x="885.00" y="382.00" text-anchor="middle" font-family="Arial, sans-serif" font-size="17" font-weight="400" fill="#5b677a">2.6%</text>
<text x="319.00" y="114.00" text-anchor="end" font-family="Arial, sans-serif" font-size="18" font-weight="400" fill="#172033">english information gap</text>
<rect x="335.00" y="99.00" width="97.73" height="18" rx="3" fill="#bc6c25" opacity="0.78"/>
<line x1="400.17" x2="481.45" y1="108.00" y2="108.00" stroke="#172033" stroke-width="1.4" opacity="0.85"/>
<line x1="400.17" x2="400.17" y1="103.00" y2="113.00" stroke="#172033" stroke-width="1.4" opacity="0.85"/>
<line x1="481.45" x2="481.45" y1="103.00" y2="113.00" stroke="#172033" stroke-width="1.4" opacity="0.85"/>
<text x="903.00" y="114.00" text-anchor="start" font-family="Arial, sans-serif" font-size="17" font-weight="400" fill="#172033">OR 1.22; FDR 0.340</text>
<text x="319.00" y="161.00" text-anchor="end" font-family="Arial, sans-serif" font-size="18" font-weight="400" fill="#172033">itinerary fit time cost</text>
<rect x="335.00" y="146.00" width="110.48" height="18" rx="3" fill="#9a031e" opacity="0.78"/>
<line x1="410.45" x2="496.64" y1="155.00" y2="155.00" stroke="#172033" stroke-width="1.4" opacity="0.85"/>
<line x1="410.45" x2="410.45" y1="150.00" y2="160.00" stroke="#172033" stroke-width="1.4" opacity="0.85"/>
<line x1="496.64" x2="496.64" y1="150.00" y2="160.00" stroke="#172033" stroke-width="1.4" opacity="0.85"/>
<text x="903.00" y="161.00" text-anchor="start" font-family="Arial, sans-serif" font-size="17" font-weight="700" fill="#172033">OR 4.24; FDR 0.001 *</text>
<text x="319.00" y="208.00" text-anchor="end" font-family="Arial, sans-serif" font-size="18" font-weight="400" fill="#172033">wayfinding signage</text>
<rect x="335.00" y="193.00" width="118.97" height="18" rx="3" fill="#bc6c25" opacity="0.78"/>
<line x1="417.38" x2="506.70" y1="202.00" y2="202.00" stroke="#172033" stroke-width="1.4" opacity="0.85"/>
<line x1="417.38" x2="417.38" y1="197.00" y2="207.00" stroke="#172033" stroke-width="1.4" opacity="0.85"/>
<line x1="506.70" x2="506.70" y1="197.00" y2="207.00" stroke="#172033" stroke-width="1.4" opacity="0.85"/>
<text x="903.00" y="208.00" text-anchor="start" font-family="Arial, sans-serif" font-size="17" font-weight="400" fill="#172033">OR 1.80; FDR 0.125</text>
<text x="319.00" y="255.00" text-anchor="end" font-family="Arial, sans-serif" font-size="18" font-weight="400" fill="#172033">booking ticketing</text>
<rect x="335.00" y="240.00" width="140.22" height="18" rx="3" fill="#bc6c25" opacity="0.78"/>
<line x1="434.93" x2="531.60" y1="249.00" y2="249.00" stroke="#172033" stroke-width="1.4" opacity="0.85"/>
<line x1="434.93" x2="434.93" y1="244.00" y2="254.00" stroke="#172033" stroke-width="1.4" opacity="0.85"/>
<line x1="531.60" x2="531.60" y1="244.00" y2="254.00" stroke="#172033" stroke-width="1.4" opacity="0.85"/>
<text x="903.00" y="255.00" text-anchor="start" font-family="Arial, sans-serif" font-size="17" font-weight="400" fill="#172033">OR 1.66; FDR 0.125</text>
<text x="319.00" y="302.00" text-anchor="end" font-family="Arial, sans-serif" font-size="18" font-weight="400" fill="#172033">transport access</text>
<rect x="335.00" y="287.00" width="161.47" height="18" rx="3" fill="#bc6c25" opacity="0.78"/>
<line x1="452.75" x2="556.24" y1="296.00" y2="296.00" stroke="#172033" stroke-width="1.4" opacity="0.85"/>
<line x1="452.75" x2="452.75" y1="291.00" y2="301.00" stroke="#172033" stroke-width="1.4" opacity="0.85"/>
<line x1="556.24" x2="556.24" y1="291.00" y2="301.00" stroke="#172033" stroke-width="1.4" opacity="0.85"/>
<text x="903.00" y="302.00" text-anchor="start" font-family="Arial, sans-serif" font-size="17" font-weight="400" fill="#172033">OR 1.14; FDR 0.277</text>
<text x="319.00" y="349.00" text-anchor="end" font-family="Arial, sans-serif" font-size="18" font-weight="400" fill="#172033">opening hours availability</text>
<rect x="335.00" y="334.00" width="390.92" height="18" rx="3" fill="#9a031e" opacity="0.78"/>
<line x1="654.27" x2="813.26" y1="343.00" y2="343.00" stroke="#172033" stroke-width="1.4" opacity="0.85"/>
<line x1="654.27" x2="654.27" y1="338.00" y2="348.00" stroke="#172033" stroke-width="1.4" opacity="0.85"/>
<line x1="813.26" x2="813.26" y1="338.00" y2="348.00" stroke="#172033" stroke-width="1.4" opacity="0.85"/>
<text x="903.00" y="349.00" text-anchor="start" font-family="Arial, sans-serif" font-size="17" font-weight="700" fill="#172033">OR 3.61; FDR &lt;0.001 *</text>
<text x="610.00" y="410.00" text-anchor="middle" font-family="Arial, sans-serif" font-size="20" font-weight="700" fill="#172033">Pooled prevalence with Wilson 95% CI</text>
<text x="24.00" y="441.00" text-anchor="start" font-family="Arial, sans-serif" font-size="16" font-weight="400" fill="#5b677a">Asterisk marks BH-FDR significance; rare or underpowered levers remain visible with uncertainty.</text>
</svg>