<svg xmlns="http://www.w3.org/2000/svg" width="1900" height="674" viewBox="0 0 1900 674" font-family="Helvetica, Arial, 'Noto Sans CJK JP', sans-serif"><rect width="1900" height="674" fill="#fbfaf7"/><rect x="0" y="0" width="14" height="674" fill="#2f6f73"/><text x="60" y="56" font-size="38" font-weight="700" fill="#172033">Promote-it sites · Hokuriku</text><text x="60" y="90" font-size="22" fill="#5b677a" font-family="'Noto Sans CJK JP', sans-serif">推奨型スポット — 来訪は少ないが満足度が高い隠れた名所</text><rect x="60" y="110" width="1780" height="56" fill="#2f6f73"/><text x="77.8" y="147" font-size="22" font-weight="700" fill="#ffffff" text-anchor="start">#</text><text x="131.2" y="147" font-size="22" font-weight="700" fill="#ffffff" text-anchor="start">Site</text><text x="772.0" y="147" font-size="22" font-weight="700" fill="#ffffff" text-anchor="start">Pref.</text><text x="1039.0" y="147" font-size="22" font-weight="700" fill="#ffffff" text-anchor="end">Reviews</text><text x="1484.0" y="147" font-size="22" font-weight="700" fill="#ffffff" text-anchor="end">Positive (95% CI)</text><text x="1537.4" y="147" font-size="22" font-weight="700" fill="#ffffff" text-anchor="start">Confidence</text><text x="77.8" y="207" font-size="23" fill="#172033" text-anchor="start">1</text><text x="131.2" y="207" font-size="23" fill="#172033" text-anchor="start">Ishikawa Prefectural Noh Theater</text><text x="772.0" y="207" font-size="23" fill="#172033" text-anchor="start">Ishikawa</text><text x="1039.0" y="207" font-size="23" fill="#172033" text-anchor="end">16</text><text x="1484.0" y="207" font-size="23" fill="#172033" text-anchor="end">94% (72%–99%)</text><text x="1537.4" y="207" font-size="23" fill="#172033" text-anchor="start">low</text><line x1="60" y1="230" x2="1840" y2="230" stroke="#d7dde8" stroke-width="1"/><rect x="60" y="230" width="1780" height="64" fill="#f1efe9"/><text x="77.8" y="271" font-size="23" fill="#172033" text-anchor="start">2</text><text x="131.2" y="271" font-size="23" fill="#172033" text-anchor="start">Asahi Town Folk Museum</text><text x="772.0" y="271" font-size="23" fill="#172033" text-anchor="start">Toyama</text><text x="1039.0" y="271" font-size="23" fill="#172033" text-anchor="end">12</text><text x="1484.0" y="271" font-size="23" fill="#172033" text-anchor="end">92% (65%–99%)</text><text x="1537.4" y="271" font-size="23" fill="#172033" text-anchor="start">low</text><line x1="60" y1="294" x2="1840" y2="294" stroke="#d7dde8" stroke-width="1"/><text x="77.8" y="335" font-size="23" fill="#172033" text-anchor="start">3</text><text x="131.2" y="335" font-size="23" fill="#172033" text-anchor="start">Kitamaebune Sakai Port</text><text x="772.0" y="335" font-size="23" fill="#172033" text-anchor="start">Fukui</text><text x="1039.0" y="335" font-size="23" fill="#172033" text-anchor="end">31</text><text x="1484.0" y="335" font-size="23" fill="#172033" text-anchor="end">90% (75%–97%)</text><text x="1537.4" y="335" font-size="23" fill="#172033" text-anchor="start">moderate</text><line x1="60" y1="358" x2="1840" y2="358" stroke="#d7dde8" stroke-width="1"/><rect x="60" y="358" width="1780" height="64" fill="#f1efe9"/><text x="77.8" y="399" font-size="23" fill="#172033" text-anchor="start">4</text><text x="131.2" y="399" font-size="23" fill="#172033" text-anchor="start">Shiinoki Cultural Complex</text><text x="772.0" y="399" font-size="23" fill="#172033" text-anchor="start">Ishikawa</text><text x="1039.0" y="399" font-size="23" fill="#172033" text-anchor="end">36</text><text x="1484.0" y="399" font-size="23" fill="#172033" text-anchor="end">94% (82%–98%)</text><text x="1537.4" y="399" font-size="23" fill="#172033" text-anchor="start">moderate</text><line x1="60" y1="422" x2="1840" y2="422" stroke="#d7dde8" stroke-width="1"/><text x="77.8" y="463" font-size="23" fill="#172033" text-anchor="start">5</text><text x="131.2" y="463" font-size="23" fill="#172033" text-anchor="start">Asuwa River Promenade</text><text x="772.0" y="463" font-size="23" fill="#172033" text-anchor="start">Fukui</text><text x="1039.0" y="463" font-size="23" fill="#172033" text-anchor="end">48</text><text x="1484.0" y="463" font-size="23" fill="#172033" text-anchor="end">96% (86%–99%)</text><text x="1537.4" y="463" font-size="23" fill="#172033" text-anchor="start">moderate</text><line x1="60" y1="486" x2="1840" y2="486" stroke="#d7dde8" stroke-width="1"/><rect x="60" y="486" width="1780" height="64" fill="#f1efe9"/><text x="77.8" y="527" font-size="23" fill="#172033" text-anchor="start">6</text><text x="131.2" y="527" font-size="23" fill="#172033" text-anchor="start">Takaoka Okumura Memorial Museum</text><text x="772.0" y="527" font-size="23" fill="#172033" text-anchor="start">Toyama</text><text x="1039.0" y="527" font-size="23" fill="#172033" text-anchor="end">40</text><text x="1484.0" y="527" font-size="23" fill="#172033" text-anchor="end">88% (74%–95%)</text><text x="1537.4" y="527" font-size="23" fill="#172033" text-anchor="start">moderate</text><line x1="60" y1="550" x2="1840" y2="550" stroke="#d7dde8" stroke-width="1"/><text x="77.8" y="591" font-size="23" fill="#172033" text-anchor="start">7</text><text x="131.2" y="591" font-size="23" fill="#172033" text-anchor="start">Kutaniyaki Art Museum</text><text x="772.0" y="591" font-size="23" fill="#172033" text-anchor="start">Ishikawa</text><text x="1039.0" y="591" font-size="23" fill="#172033" text-anchor="end">46</text><text x="1484.0" y="591" font-size="23" fill="#172033" text-anchor="end">96% (85%–99%)</text><text x="1537.4" y="591" font-size="23" fill="#172033" text-anchor="start">moderate</text><line x1="60" y1="614" x2="1840" y2="614" stroke="#d7dde8" stroke-width="1"/></svg>