<svg xmlns="http://www.w3.org/2000/svg" width="1200" height="650" viewBox="0 0 1200 650">
<rect width="100%" height="100%" fill="#fbfaf7"/>
<text x="24.00" y="38.00" text-anchor="start" font-family="Arial, sans-serif" font-size="34" font-weight="700" fill="#172033">POI Action Map: Fix, Promote, Redirect</text>
<text x="24.00" y="67.00" text-anchor="start" font-family="Arial, sans-serif" font-size="20" font-weight="400" fill="#5b677a">POI aggregates with rating-based positive share and Wilson uncertainty</text>
<line x1="543.22" x2="543.22" y1="90.00" y2="538.00" stroke="#d7dde8" stroke-dasharray="6 5" stroke-width="1.5"/>
<text x="550.22" y="109.00" text-anchor="start" font-family="Arial, sans-serif" font-size="16" font-weight="400" fill="#5b677a">low-volume cutoff</text>
<line x1="1032.04" x2="1032.04" y1="90.00" y2="538.00" stroke="#d7dde8" stroke-dasharray="6 5" stroke-width="1.5"/>
<text x="1025.04" y="109.00" text-anchor="end" font-family="Arial, sans-serif" font-size="16" font-weight="400" fill="#5b677a">high-volume cutoff</text>
<text x="92.00" y="562.00" text-anchor="middle" font-family="Arial, sans-serif" font-size="17" font-weight="400" fill="#5b677a">0</text>
<text x="543.22" y="562.00" text-anchor="middle" font-family="Arial, sans-serif" font-size="17" font-weight="400" fill="#5b677a">48</text>
<text x="1032.04" y="562.00" text-anchor="middle" font-family="Arial, sans-serif" font-size="17" font-weight="400" fill="#5b677a">100</text>
<text x="1158.00" y="562.00" text-anchor="middle" font-family="Arial, sans-serif" font-size="17" font-weight="400" fill="#5b677a">113</text>
<line x1="92.00" x2="1158.00" y1="302.45" y2="302.45" stroke="#d7dde8" opacity="0.55"/>
<text x="80.00" y="308.45" text-anchor="end" font-family="Arial, sans-serif" font-size="17" font-weight="400" fill="#5b677a">70%</text>
<line x1="92.00" x2="1158.00" y1="196.22" y2="196.22" stroke="#d7dde8" opacity="0.55"/>
<text x="80.00" y="202.22" text-anchor="end" font-family="Arial, sans-serif" font-size="17" font-weight="400" fill="#5b677a">85%</text>
<line x1="92.00" x2="1158.00" y1="90.00" y2="90.00" stroke="#d7dde8" opacity="0.55"/>
<text x="80.00" y="96.00" text-anchor="end" font-family="Arial, sans-serif" font-size="17" font-weight="400" fill="#5b677a">100%</text>
<line x1="242.41" x2="242.41" y1="290.61" y2="97.87" stroke="#2f6f73" stroke-width="1.2" opacity="0.40"/>
<circle cx="242.41" cy="134.26" r="5.5" fill="#2f6f73" opacity="0.82"/>
<line x1="204.80" x2="204.80" y1="340.61" y2="100.53" stroke="#2f6f73" stroke-width="1.2" opacity="0.40"/>
<circle cx="204.80" cy="149.01" r="5.5" fill="#2f6f73" opacity="0.82"/>
<line x1="383.41" x2="383.41" y1="266.33" y2="113.70" stroke="#2f6f73" stroke-width="1.2" opacity="0.40"/>
<circle cx="383.41" cy="158.53" r="5.5" fill="#2f6f73" opacity="0.82"/>
<circle cx="383.41" cy="158.53" r="9.0" fill="none" stroke="#172033" stroke-width="1.5" opacity="0.85"/>
<line x1="430.41" x2="430.41" y1="218.49" y2="100.88" stroke="#2f6f73" stroke-width="1.2" opacity="0.40"/>
<circle cx="430.41" cy="129.34" r="5.5" fill="#2f6f73" opacity="0.82"/>
<line x1="543.22" x2="543.22" y1="188.97" y2="98.15" stroke="#2f6f73" stroke-width="1.2" opacity="0.40"/>
<circle cx="543.22" cy="119.51" r="5.5" fill="#2f6f73" opacity="0.82"/>
<circle cx="543.22" cy="119.51" r="9.0" fill="none" stroke="#172033" stroke-width="1.5" opacity="0.85"/>
<line x1="468.01" x2="468.01" y1="274.92" y2="128.66" stroke="#2f6f73" stroke-width="1.2" opacity="0.40"/>
<circle cx="468.01" cy="178.52" r="5.5" fill="#2f6f73" opacity="0.82"/>
<line x1="517.42" x2="517.42" y1="192.91" y2="98.50" stroke="#2f6f73" stroke-width="1.2" opacity="0.40"/>
<circle cx="517.42" cy="120.79" r="5.5" fill="#2f6f73" opacity="0.82"/>
<line x1="1058.04" x2="1058.04" y1="262.84" y2="163.37" stroke="#bc6c25" stroke-width="1.2" opacity="0.40"/>
<rect x="1053.04" y="199.66" width="10" height="10" fill="#bc6c25" opacity="0.82"/>
<line x1="1061.04" x2="1061.04" y1="454.45" y2="323.10" stroke="#bc6c25" stroke-width="1.2" opacity="0.40"/>
<rect x="1056.04" y="381.75" width="10" height="10" fill="#bc6c25" opacity="0.82"/>
<line x1="1049.74" x2="1049.74" y1="218.31" y2="132.98" stroke="#bc6c25" stroke-width="1.2" opacity="0.40"/>
<rect x="1044.74" y="160.63" width="10" height="10" fill="#bc6c25" opacity="0.82"/>
<circle cx="1049.74" cy="165.63" r="9.0" fill="none" stroke="#172033" stroke-width="1.5" opacity="0.85"/>
<line x1="1064.04" x2="1064.04" y1="285.44" y2="179.81" stroke="#bc6c25" stroke-width="1.2" opacity="0.40"/>
<rect x="1059.04" y="219.89" width="10" height="10" fill="#bc6c25" opacity="0.82"/>
<circle cx="1064.04" cy="224.89" r="9.0" fill="none" stroke="#172033" stroke-width="1.5" opacity="0.85"/>
<line x1="1067.04" x2="1067.04" y1="174.34" y2="108.73" stroke="#9a031e" stroke-width="1.2" opacity="0.40"/>
<circle cx="1067.04" cy="130.47" r="5.5" fill="#9a031e" opacity="0.82"/>
<circle cx="1067.04" cy="130.47" r="9.0" fill="none" stroke="#172033" stroke-width="1.5" opacity="0.85"/>
<line x1="1052.14" x2="1052.14" y1="256.69" y2="158.67" stroke="#9a031e" stroke-width="1.2" opacity="0.40"/>
<circle cx="1052.14" cy="198.95" r="5.5" fill="#9a031e" opacity="0.82"/>
<circle cx="1052.14" cy="198.95" r="9.0" fill="none" stroke="#172033" stroke-width="1.5" opacity="0.85"/>
<line x1="1070.04" x2="1070.04" y1="314.93" y2="202.37" stroke="#9a031e" stroke-width="1.2" opacity="0.40"/>
<circle cx="1070.04" cy="251.87" r="5.5" fill="#9a031e" opacity="0.82"/>
<line x1="1011.04" x2="1011.04" y1="159.66" y2="101.09" stroke="#bc6c25" stroke-width="1.2" opacity="0.40"/>
<rect x="1006.04" y="113.33" width="10" height="10" fill="#bc6c25" opacity="0.82"/>
<line x1="1020.44" x2="1020.44" y1="159.00" y2="100.98" stroke="#bc6c25" stroke-width="1.2" opacity="0.40"/>
<rect x="1015.44" y="113.05" width="10" height="10" fill="#bc6c25" opacity="0.82"/>
<circle cx="1020.44" cy="118.05" r="9.0" fill="none" stroke="#172033" stroke-width="1.5" opacity="0.85"/>
<line x1="1027.44" x2="1027.44" y1="269.24" y2="166.36" stroke="#9a031e" stroke-width="1.2" opacity="0.40"/>
<circle cx="1027.44" cy="209.20" r="5.5" fill="#9a031e" opacity="0.82"/>
<line x1="1073.04" x2="1073.04" y1="199.71" y2="122.40" stroke="#bc6c25" stroke-width="1.2" opacity="0.40"/>
<rect x="1068.04" y="145.70" width="10" height="10" fill="#bc6c25" opacity="0.82"/>
<circle cx="1073.04" cy="150.70" r="9.0" fill="none" stroke="#172033" stroke-width="1.5" opacity="0.85"/>
<line x1="1076.04" x2="1076.04" y1="199.71" y2="122.40" stroke="#8d99ae" stroke-width="1.2" opacity="0.40"/>
<circle cx="1076.04" cy="150.70" r="5.5" fill="#8d99ae" opacity="0.82"/>
<line x1="1079.04" x2="1079.04" y1="300.27" y2="191.01" stroke="#8d99ae" stroke-width="1.2" opacity="0.40"/>
<circle cx="1079.04" cy="238.38" r="5.5" fill="#8d99ae" opacity="0.82"/>
<line x1="1082.04" x2="1082.04" y1="165.53" y2="104.52" stroke="#8d99ae" stroke-width="1.2" opacity="0.40"/>
<circle cx="1082.04" cy="123.72" r="5.5" fill="#8d99ae" opacity="0.82"/>
<line x1="1085.04" x2="1085.04" y1="277.95" y2="174.28" stroke="#8d99ae" stroke-width="1.2" opacity="0.40"/>
<circle cx="1085.04" cy="218.14" r="5.5" fill="#8d99ae" opacity="0.82"/>
<line x1="1088.04" x2="1088.04" y1="247.50" y2="152.69" stroke="#9a031e" stroke-width="1.2" opacity="0.40"/>
<circle cx="1088.04" cy="191.17" r="5.5" fill="#9a031e" opacity="0.82"/>
<line x1="1091.04" x2="1091.04" y1="314.93" y2="202.37" stroke="#8d99ae" stroke-width="1.2" opacity="0.40"/>
<circle cx="1091.04" cy="251.87" r="5.5" fill="#8d99ae" opacity="0.82"/>
<line x1="1094.04" x2="1094.04" y1="292.87" y2="185.39" stroke="#9a031e" stroke-width="1.2" opacity="0.40"/>
<circle cx="1094.04" cy="231.63" r="5.5" fill="#9a031e" opacity="0.82"/>
<line x1="1097.04" x2="1097.04" y1="137.31" y2="93.71" stroke="#8d99ae" stroke-width="1.2" opacity="0.40"/>
<circle cx="1097.04" cy="103.49" r="5.5" fill="#8d99ae" opacity="0.82"/>
<line x1="1100.04" x2="1100.04" y1="182.95" y2="113.13" stroke="#8d99ae" stroke-width="1.2" opacity="0.40"/>
<circle cx="1100.04" cy="137.21" r="5.5" fill="#8d99ae" opacity="0.82"/>
<line x1="1060.89" x2="1060.89" y1="225.20" y2="137.62" stroke="#8d99ae" stroke-width="1.2" opacity="0.40"/>
<circle cx="1060.89" cy="171.71" r="5.5" fill="#8d99ae" opacity="0.82"/>
<line x1="1069.64" x2="1069.64" y1="183.80" y2="113.36" stroke="#8d99ae" stroke-width="1.2" opacity="0.40"/>
<circle cx="1069.64" cy="137.66" r="5.5" fill="#8d99ae" opacity="0.82"/>
<line x1="1078.39" x2="1078.39" y1="225.20" y2="137.62" stroke="#8d99ae" stroke-width="1.2" opacity="0.40"/>
<circle cx="1078.39" cy="171.71" r="5.5" fill="#8d99ae" opacity="0.82"/>
<line x1="1087.14" x2="1087.14" y1="175.11" y2="108.91" stroke="#8d99ae" stroke-width="1.2" opacity="0.40"/>
<circle cx="1087.14" cy="130.86" r="5.5" fill="#8d99ae" opacity="0.82"/>
<line x1="1060.24" x2="1060.24" y1="362.82" y2="240.34" stroke="#8d99ae" stroke-width="1.2" opacity="0.40"/>
<circle cx="1060.24" cy="296.26" r="5.5" fill="#8d99ae" opacity="0.82"/>
<circle cx="1060.24" cy="296.26" r="9.0" fill="none" stroke="#172033" stroke-width="1.5" opacity="0.85"/>
<line x1="1070.74" x2="1070.74" y1="184.67" y2="113.59" stroke="#8d99ae" stroke-width="1.2" opacity="0.40"/>
<circle cx="1070.74" cy="138.13" r="5.5" fill="#8d99ae" opacity="0.82"/>
<line x1="1036.84" x2="1036.84" y1="313.56" y2="199.92" stroke="#8d99ae" stroke-width="1.2" opacity="0.40"/>
<circle cx="1036.84" cy="249.68" r="5.5" fill="#8d99ae" opacity="0.82"/>
<circle cx="1036.84" cy="249.68" r="9.0" fill="none" stroke="#172033" stroke-width="1.5" opacity="0.85"/>
<line x1="1046.17" x2="1046.17" y1="436.41" y2="304.56" stroke="#8d99ae" stroke-width="1.2" opacity="0.40"/>
<circle cx="1046.17" cy="367.71" r="5.5" fill="#8d99ae" opacity="0.82"/>
<circle cx="1046.17" cy="367.71" r="9.0" fill="none" stroke="#172033" stroke-width="1.5" opacity="0.85"/>
<line x1="1055.50" x2="1055.50" y1="401.21" y2="272.85" stroke="#8d99ae" stroke-width="1.2" opacity="0.40"/>
<circle cx="1055.50" cy="333.00" r="5.5" fill="#8d99ae" opacity="0.82"/>
<line x1="1064.84" x2="1064.84" y1="415.37" y2="285.45" stroke="#8d99ae" stroke-width="1.2" opacity="0.40"/>
<circle cx="1064.84" cy="346.88" r="5.5" fill="#8d99ae" opacity="0.82"/>
<line x1="1034.44" x2="1034.44" y1="212.32" y2="128.72" stroke="#8d99ae" stroke-width="1.2" opacity="0.40"/>
<circle cx="1034.44" cy="160.12" r="5.5" fill="#8d99ae" opacity="0.82"/>
<circle cx="1034.44" cy="160.12" r="9.0" fill="none" stroke="#172033" stroke-width="1.5" opacity="0.85"/>
<line x1="1041.44" x2="1041.44" y1="168.39" y2="105.10" stroke="#8d99ae" stroke-width="1.2" opacity="0.40"/>
<circle cx="1041.44" cy="125.06" r="5.5" fill="#8d99ae" opacity="0.82"/>
<circle cx="1041.44" cy="125.06" r="9.0" fill="none" stroke="#172033" stroke-width="1.5" opacity="0.85"/>
<line x1="1048.44" x2="1048.44" y1="177.52" y2="109.48" stroke="#8d99ae" stroke-width="1.2" opacity="0.40"/>
<circle cx="1048.44" cy="132.07" r="5.5" fill="#8d99ae" opacity="0.82"/>
<line x1="1055.44" x2="1055.44" y1="237.19" y2="144.38" stroke="#8d99ae" stroke-width="1.2" opacity="0.40"/>
<circle cx="1055.44" cy="181.15" r="5.5" fill="#8d99ae" opacity="0.82"/>
<line x1="1062.44" x2="1062.44" y1="212.32" y2="128.72" stroke="#8d99ae" stroke-width="1.2" opacity="0.40"/>
<circle cx="1062.44" cy="160.12" r="5.5" fill="#8d99ae" opacity="0.82"/>
<line x1="1015.24" x2="1015.24" y1="449.74" y2="315.67" stroke="#8d99ae" stroke-width="1.2" opacity="0.40"/>
<circle cx="1015.24" cy="380.35" r="5.5" fill="#8d99ae" opacity="0.82"/>
<circle cx="1015.24" cy="380.35" r="9.0" fill="none" stroke="#172033" stroke-width="1.5" opacity="0.85"/>
<line x1="1019.44" x2="1019.44" y1="213.48" y2="129.11" stroke="#8d99ae" stroke-width="1.2" opacity="0.40"/>
<circle cx="1019.44" cy="160.82" r="5.5" fill="#8d99ae" opacity="0.82"/>
<circle cx="1019.44" cy="160.82" r="9.0" fill="none" stroke="#172033" stroke-width="1.5" opacity="0.85"/>
<line x1="1023.64" x2="1023.64" y1="169.14" y2="105.26" stroke="#8d99ae" stroke-width="1.2" opacity="0.40"/>
<circle cx="1023.64" cy="125.41" r="5.5" fill="#8d99ae" opacity="0.82"/>
<circle cx="1023.64" cy="125.41" r="9.0" fill="none" stroke="#172033" stroke-width="1.5" opacity="0.85"/>
<line x1="1027.84" x2="1027.84" y1="169.14" y2="105.26" stroke="#8d99ae" stroke-width="1.2" opacity="0.40"/>
<circle cx="1027.84" cy="125.41" r="5.5" fill="#8d99ae" opacity="0.82"/>
<circle cx="1027.84" cy="125.41" r="9.0" fill="none" stroke="#172033" stroke-width="1.5" opacity="0.85"/>
<line x1="1032.04" x2="1032.04" y1="238.58" y2="144.93" stroke="#8d99ae" stroke-width="1.2" opacity="0.40"/>
<circle cx="1032.04" cy="182.06" r="5.5" fill="#8d99ae" opacity="0.82"/>
<line x1="1036.24" x2="1036.24" y1="302.31" y2="190.32" stroke="#8d99ae" stroke-width="1.2" opacity="0.40"/>
<circle cx="1036.24" cy="238.71" r="5.5" fill="#8d99ae" opacity="0.82"/>
<line x1="1040.44" x2="1040.44" y1="270.92" y2="167.14" stroke="#8d99ae" stroke-width="1.2" opacity="0.40"/>
<circle cx="1040.44" cy="210.39" r="5.5" fill="#8d99ae" opacity="0.82"/>
<line x1="1044.64" x2="1044.64" y1="139.58" y2="93.90" stroke="#8d99ae" stroke-width="1.2" opacity="0.40"/>
<circle cx="1044.64" cy="104.16" r="5.5" fill="#8d99ae" opacity="0.82"/>
<line x1="1048.84" x2="1048.84" y1="262.94" y2="161.49" stroke="#8d99ae" stroke-width="1.2" opacity="0.40"/>
<circle cx="1048.84" cy="203.31" r="5.5" fill="#8d99ae" opacity="0.82"/>
<line x1="1053.04" x2="1053.04" y1="204.91" y2="124.04" stroke="#8d99ae" stroke-width="1.2" opacity="0.40"/>
<circle cx="1053.04" cy="153.73" r="5.5" fill="#8d99ae" opacity="0.82"/>
<line x1="1022.63" x2="1022.63" y1="231.64" y2="140.08" stroke="#8d99ae" stroke-width="1.2" opacity="0.40"/>
<circle cx="1022.63" cy="175.84" r="5.5" fill="#8d99ae" opacity="0.82"/>
<line x1="985.03" x2="985.03" y1="312.66" y2="195.78" stroke="#8d99ae" stroke-width="1.2" opacity="0.40"/>
<circle cx="985.03" cy="246.54" r="5.5" fill="#8d99ae" opacity="0.82"/>
<circle cx="985.03" cy="246.54" r="9.0" fill="none" stroke="#172033" stroke-width="1.5" opacity="0.85"/>
<line x1="938.03" x2="938.03" y1="430.63" y2="291.51" stroke="#8d99ae" stroke-width="1.2" opacity="0.40"/>
<circle cx="938.03" cy="357.53" r="5.5" fill="#8d99ae" opacity="0.82"/>
<circle cx="938.03" cy="357.53" r="9.0" fill="none" stroke="#172033" stroke-width="1.5" opacity="0.85"/>
<line x1="891.03" x2="891.03" y1="262.99" y2="154.88" stroke="#8d99ae" stroke-width="1.2" opacity="0.40"/>
<circle cx="891.03" cy="198.31" r="5.5" fill="#8d99ae" opacity="0.82"/>
<circle cx="891.03" cy="198.31" r="9.0" fill="none" stroke="#172033" stroke-width="1.5" opacity="0.85"/>
<line x1="759.43" x2="759.43" y1="248.41" y2="138.26" stroke="#8d99ae" stroke-width="1.2" opacity="0.40"/>
<circle cx="759.43" cy="179.77" r="5.5" fill="#8d99ae" opacity="0.82"/>
<line x1="750.02" x2="750.02" y1="362.96" y2="218.32" stroke="#8d99ae" stroke-width="1.2" opacity="0.40"/>
<circle cx="750.02" cy="282.22" r="5.5" fill="#8d99ae" opacity="0.82"/>
<line x1="674.82" x2="674.82" y1="370.38" y2="216.63" stroke="#8d99ae" stroke-width="1.2" opacity="0.40"/>
<circle cx="674.82" cy="284.17" r="5.5" fill="#8d99ae" opacity="0.82"/>
<circle cx="674.82" cy="284.17" r="9.0" fill="none" stroke="#172033" stroke-width="1.5" opacity="0.85"/>
<line x1="656.02" x2="656.02" y1="340.95" y2="192.26" stroke="#8d99ae" stroke-width="1.2" opacity="0.40"/>
<circle cx="656.02" cy="255.24" r="5.5" fill="#8d99ae" opacity="0.82"/>
<line x1="637.22" x2="637.22" y1="335.46" y2="186.27" stroke="#8d99ae" stroke-width="1.2" opacity="0.40"/>
<circle cx="637.22" cy="248.73" r="5.5" fill="#8d99ae" opacity="0.82"/>
<circle cx="637.22" cy="248.73" r="9.0" fill="none" stroke="#172033" stroke-width="1.5" opacity="0.85"/>
<line x1="580.82" x2="580.82" y1="284.92" y2="146.71" stroke="#8d99ae" stroke-width="1.2" opacity="0.40"/>
<circle cx="580.82" cy="198.95" r="5.5" fill="#8d99ae" opacity="0.82"/>
<circle cx="580.82" cy="198.95" r="9.0" fill="none" stroke="#172033" stroke-width="1.5" opacity="0.85"/>
<line x1="562.02" x2="562.02" y1="204.84" y2="104.60" stroke="#8d99ae" stroke-width="1.2" opacity="0.40"/>
<circle cx="562.02" cy="132.49" r="5.5" fill="#8d99ae" opacity="0.82"/>
<line x1="533.82" x2="533.82" y1="369.78" y2="198.02" stroke="#8d99ae" stroke-width="1.2" opacity="0.40"/>
<circle cx="533.82" cy="270.81" r="5.5" fill="#8d99ae" opacity="0.82"/>
<circle cx="533.82" cy="270.81" r="9.0" fill="none" stroke="#172033" stroke-width="1.5" opacity="0.85"/>
<line x1="531.42" x2="531.42" y1="341.92" y2="176.83" stroke="#8d99ae" stroke-width="1.2" opacity="0.40"/>
<circle cx="531.42" cy="243.95" r="5.5" fill="#8d99ae" opacity="0.82"/>
<line x1="496.22" x2="496.22" y1="320.98" y2="158.99" stroke="#8d99ae" stroke-width="1.2" opacity="0.40"/>
<circle cx="496.22" cy="221.75" r="5.5" fill="#8d99ae" opacity="0.82"/>
<circle cx="496.22" cy="221.75" r="9.0" fill="none" stroke="#172033" stroke-width="1.5" opacity="0.85"/>
<line x1="442.21" x2="442.21" y1="305.40" y2="142.71" stroke="#8d99ae" stroke-width="1.2" opacity="0.40"/>
<circle cx="442.21" cy="201.82" r="5.5" fill="#8d99ae" opacity="0.82"/>
<circle cx="442.21" cy="201.82" r="9.0" fill="none" stroke="#172033" stroke-width="1.5" opacity="0.85"/>
<line x1="456.21" x2="456.21" y1="305.40" y2="142.71" stroke="#8d99ae" stroke-width="1.2" opacity="0.40"/>
<circle cx="456.21" cy="201.82" r="5.5" fill="#8d99ae" opacity="0.82"/>
<line x1="402.21" x2="402.21" y1="403.13" y2="196.70" stroke="#8d99ae" stroke-width="1.2" opacity="0.40"/>
<circle cx="402.21" cy="283.14" r="5.5" fill="#8d99ae" opacity="0.82"/>
<line x1="364.61" x2="364.61" y1="509.67" y2="270.68" stroke="#8d99ae" stroke-width="1.2" opacity="0.40"/>
<circle cx="364.61" cy="383.03" r="5.5" fill="#8d99ae" opacity="0.82"/>
<line x1="336.41" x2="336.41" y1="387.79" y2="168.14" stroke="#8d99ae" stroke-width="1.2" opacity="0.40"/>
<circle cx="336.41" cy="253.42" r="5.5" fill="#8d99ae" opacity="0.82"/>
<line x1="298.81" x2="298.81" y1="397.63" y2="161.69" stroke="#8d99ae" stroke-width="1.2" opacity="0.40"/>
<circle cx="298.81" cy="250.95" r="5.5" fill="#8d99ae" opacity="0.82"/>
<line x1="251.81" x2="251.81" y1="380.56" y2="133.84" stroke="#8d99ae" stroke-width="1.2" opacity="0.40"/>
<circle cx="251.81" cy="214.97" r="5.5" fill="#8d99ae" opacity="0.82"/>
<circle cx="251.81" cy="214.97" r="9.0" fill="none" stroke="#172033" stroke-width="1.5" opacity="0.85"/>
<line x1="223.60" x2="223.60" y1="427.01" y2="143.62" stroke="#8d99ae" stroke-width="1.2" opacity="0.40"/>
<circle cx="223.60" cy="241.75" r="5.5" fill="#8d99ae" opacity="0.82"/>
<line x1="195.40" x2="195.40" y1="427.78" y2="126.38" stroke="#8d99ae" stroke-width="1.2" opacity="0.40"/>
<circle cx="195.40" cy="218.76" r="5.5" fill="#8d99ae" opacity="0.82"/>
<circle cx="195.40" cy="218.76" r="9.0" fill="none" stroke="#172033" stroke-width="1.5" opacity="0.85"/>
<line x1="186.00" x2="186.00" y1="451.05" y2="130.14" stroke="#8d99ae" stroke-width="1.2" opacity="0.40"/>
<circle cx="186.00" cy="231.63" r="5.5" fill="#8d99ae" opacity="0.82"/>
<text x="555.22" y="124.51" text-anchor="start" font-family="Arial, sans-serif" font-size="16" font-weight="700" fill="none" stroke="#fbfaf7" stroke-width="3.2" stroke-linejoin="round">Asuwa River Promenade</text><text x="555.22" y="124.51" text-anchor="start" font-family="Arial, sans-serif" font-size="16" font-weight="700" fill="#172033">Asuwa River Promenade</text>
<line x1="517.42" x2="533.42" y1="120.79" y2="140.79" stroke="#5b677a" stroke-width="0.8" opacity="0.6"/>
<text x="529.42" y="145.79" text-anchor="start" font-family="Arial, sans-serif" font-size="16" font-weight="700" fill="none" stroke="#fbfaf7" stroke-width="3.2" stroke-linejoin="round">Kutaniyaki Art Museum</text><text x="529.42" y="145.79" text-anchor="start" font-family="Arial, sans-serif" font-size="16" font-weight="700" fill="#172033">Kutaniyaki Art Museum</text>
<line x1="430.41" x2="446.41" y1="129.34" y2="169.34" stroke="#5b677a" stroke-width="0.8" opacity="0.6"/>
<text x="442.41" y="174.34" text-anchor="start" font-family="Arial, sans-serif" font-size="16" font-weight="700" fill="none" stroke="#fbfaf7" stroke-width="3.2" stroke-linejoin="round">Shiinoki Cultural Complex</text><text x="442.41" y="174.34" text-anchor="start" font-family="Arial, sans-serif" font-size="16" font-weight="700" fill="#172033">Shiinoki Cultural Complex</text>
<text x="1055.04" y="135.47" text-anchor="end" font-family="Arial, sans-serif" font-size="16" font-weight="700" fill="none" stroke="#fbfaf7" stroke-width="3.2" stroke-linejoin="round">Fukui Dinosaur Museum</text><text x="1055.04" y="135.47" text-anchor="end" font-family="Arial, sans-serif" font-size="16" font-weight="700" fill="#172033">Fukui Dinosaur Museum</text>
<line x1="242.41" x2="258.41" y1="134.26" y2="194.26" stroke="#5b677a" stroke-width="0.8" opacity="0.6"/>
<text x="254.41" y="199.26" text-anchor="start" font-family="Arial, sans-serif" font-size="16" font-weight="700" fill="none" stroke="#fbfaf7" stroke-width="3.2" stroke-linejoin="round">Ishikawa Prefectural Noh Th...</text><text x="254.41" y="199.26" text-anchor="start" font-family="Arial, sans-serif" font-size="16" font-weight="700" fill="#172033">Ishikawa Prefectural Noh Th...</text>
<line x1="204.80" x2="220.80" y1="149.01" y2="229.01" stroke="#5b677a" stroke-width="0.8" opacity="0.6"/>
<text x="216.80" y="234.01" text-anchor="start" font-family="Arial, sans-serif" font-size="16" font-weight="700" fill="none" stroke="#fbfaf7" stroke-width="3.2" stroke-linejoin="round">Asahi Town Folk Museum</text><text x="216.80" y="234.01" text-anchor="start" font-family="Arial, sans-serif" font-size="16" font-weight="700" fill="#172033">Asahi Town Folk Museum</text>
<line x1="383.41" x2="399.41" y1="158.53" y2="258.53" stroke="#5b677a" stroke-width="0.8" opacity="0.6"/>
<text x="395.41" y="263.53" text-anchor="start" font-family="Arial, sans-serif" font-size="16" font-weight="700" fill="none" stroke="#fbfaf7" stroke-width="3.2" stroke-linejoin="round">Kitamaebune Sakai Port</text><text x="395.41" y="263.53" text-anchor="start" font-family="Arial, sans-serif" font-size="16" font-weight="700" fill="#172033">Kitamaebune Sakai Port</text>
<line x1="468.01" x2="484.01" y1="178.52" y2="298.52" stroke="#5b677a" stroke-width="0.8" opacity="0.6"/>
<text x="480.01" y="303.52" text-anchor="start" font-family="Arial, sans-serif" font-size="16" font-weight="700" fill="none" stroke="#fbfaf7" stroke-width="3.2" stroke-linejoin="round">Takaoka Okumura Memorial Mu...</text><text x="480.01" y="303.52" text-anchor="start" font-family="Arial, sans-serif" font-size="16" font-weight="700" fill="#172033">Takaoka Okumura Memorial Mu...</text>
<text x="1076.04" y="196.17" text-anchor="end" font-family="Arial, sans-serif" font-size="16" font-weight="700" fill="none" stroke="#fbfaf7" stroke-width="3.2" stroke-linejoin="round">Nomura Samurai House</text><text x="1076.04" y="196.17" text-anchor="end" font-family="Arial, sans-serif" font-size="16" font-weight="700" fill="#172033">Nomura Samurai House</text>
<line x1="1052.14" x2="1036.14" y1="198.95" y2="218.95" stroke="#5b677a" stroke-width="0.8" opacity="0.6"/>
<text x="1040.14" y="223.95" text-anchor="end" font-family="Arial, sans-serif" font-size="16" font-weight="700" fill="none" stroke="#fbfaf7" stroke-width="3.2" stroke-linejoin="round">Tojinbo Cliffs</text><text x="1040.14" y="223.95" text-anchor="end" font-family="Arial, sans-serif" font-size="16" font-weight="700" fill="#172033">Tojinbo Cliffs</text>
<line x1="1027.44" x2="1011.44" y1="209.20" y2="249.20" stroke="#5b677a" stroke-width="0.8" opacity="0.6"/>
<text x="1015.44" y="254.20" text-anchor="end" font-family="Arial, sans-serif" font-size="16" font-weight="700" fill="none" stroke="#fbfaf7" stroke-width="3.2" stroke-linejoin="round">Tonami Tulip Park</text><text x="1015.44" y="254.20" text-anchor="end" font-family="Arial, sans-serif" font-size="16" font-weight="700" fill="#172033">Tonami Tulip Park</text>
<line x1="1094.04" x2="1078.04" y1="231.63" y2="271.63" stroke="#5b677a" stroke-width="0.8" opacity="0.6"/>
<text x="1082.04" y="276.63" text-anchor="end" font-family="Arial, sans-serif" font-size="16" font-weight="700" fill="none" stroke="#fbfaf7" stroke-width="3.2" stroke-linejoin="round">Toyama Glass Art Museum</text><text x="1082.04" y="276.63" text-anchor="end" font-family="Arial, sans-serif" font-size="16" font-weight="700" fill="#172033">Toyama Glass Art Museum</text>
<line x1="1070.04" x2="1054.04" y1="251.87" y2="291.87" stroke="#5b677a" stroke-width="0.8" opacity="0.6"/>
<text x="1058.04" y="296.87" text-anchor="end" font-family="Arial, sans-serif" font-size="16" font-weight="700" fill="none" stroke="#fbfaf7" stroke-width="3.2" stroke-linejoin="round">Omicho Market</text><text x="1058.04" y="296.87" text-anchor="end" font-family="Arial, sans-serif" font-size="16" font-weight="700" fill="#172033">Omicho Market</text>
<text x="625.00" y="580.00" text-anchor="middle" font-family="Arial, sans-serif" font-size="20" font-weight="700" fill="#172033">Review volume (n reviews)</text>
<text x="25.00" y="314.00" transform="rotate(-90 25.00 314.00)" text-anchor="middle" font-family="Arial, sans-serif" font-size="20" font-weight="700" fill="#172033">Positive share (4-5 star reviews)</text>
<rect x="92.00" y="601.00" width="14" height="14" fill="#2f6f73"/>
<text x="113.00" y="615.00" text-anchor="start" font-family="Arial, sans-serif" font-size="18" font-weight="400" fill="#5b677a">promote-it</text>
<rect x="247.00" y="601.00" width="14" height="14" fill="#bc6c25"/>
<text x="268.00" y="615.00" text-anchor="start" font-family="Arial, sans-serif" font-size="18" font-weight="400" fill="#5b677a">fix-it</text>
<rect x="402.00" y="601.00" width="14" height="14" fill="#9a031e"/>
<text x="423.00" y="615.00" text-anchor="start" font-family="Arial, sans-serif" font-size="18" font-weight="400" fill="#5b677a">crowding hotspot</text>
<rect x="604.00" y="601.00" width="14" height="14" fill="#8d99ae"/>
<text x="625.00" y="615.00" text-anchor="start" font-family="Arial, sans-serif" font-size="18" font-weight="400" fill="#5b677a">other</text>
<text x="24.00" y="641.00" text-anchor="start" font-family="Arial, sans-serif" font-size="16" font-weight="400" fill="#5b677a">Positive share is rating-based; promote-it is exploratory candidate-generation; small-n Wilson CIs are wide.</text>
</svg>