<svg xmlns="http://www.w3.org/2000/svg" width="1280" height="510" viewBox="0 0 1280 510">
<rect width="100%" height="100%" fill="#fbfaf7"/>
<text x="24.00" y="38.00" text-anchor="start" font-family="Arial, sans-serif" font-size="34" font-weight="700" fill="#172033">Nudge-Able Information Levers</text>
<text x="24.00" y="67.00" text-anchor="start" font-family="Arial, sans-serif" font-size="20" font-weight="400" fill="#5b677a">Prevalence and adjusted low-rating association for six pain point aspects</text>
<line x1="370.00" x2="370.00" y1="86.00" y2="400.00" stroke="#d7dde8" opacity="0.55"/>
<text x="370.00" y="425.00" text-anchor="middle" font-family="Arial, sans-serif" font-size="17" font-weight="400" fill="#5b677a">0.0%</text>
<line x1="672.50" x2="672.50" y1="86.00" y2="400.00" stroke="#d7dde8" opacity="0.55"/>
<text x="672.50" y="425.00" text-anchor="middle" font-family="Arial, sans-serif" font-size="17" font-weight="400" fill="#5b677a">1.3%</text>
<line x1="975.00" x2="975.00" y1="86.00" y2="400.00" stroke="#d7dde8" opacity="0.55"/>
<text x="975.00" y="425.00" text-anchor="middle" font-family="Arial, sans-serif" font-size="17" font-weight="400" fill="#5b677a">2.5%</text>
<text x="354.00" y="122.00" text-anchor="end" font-family="Arial, sans-serif" font-size="18" font-weight="400" fill="#172033">english information gap</text>
<rect x="370.00" y="107.00" width="105.43" height="18" rx="3" fill="#bc6c25" opacity="0.78"/>
<line x1="440.30" x2="528.01" y1="116.00" y2="116.00" stroke="#172033" stroke-width="1.4" opacity="0.85"/>
<line x1="440.30" x2="440.30" y1="111.00" y2="121.00" stroke="#172033" stroke-width="1.4" opacity="0.85"/>
<line x1="528.01" x2="528.01" y1="111.00" y2="121.00" stroke="#172033" stroke-width="1.4" opacity="0.85"/>
<text x="993.00" y="122.00" text-anchor="start" font-family="Arial, sans-serif" font-size="17" font-weight="400" fill="#172033">OR 1.22; FDR 0.339</text>
<text x="354.00" y="176.00" text-anchor="end" font-family="Arial, sans-serif" font-size="18" font-weight="400" fill="#172033">itinerary fit time cost</text>
<rect x="370.00" y="161.00" width="132.94" height="18" rx="3" fill="#9a031e" opacity="0.78"/>
<line x1="462.63" x2="560.65" y1="170.00" y2="170.00" stroke="#172033" stroke-width="1.4" opacity="0.85"/>
<line x1="462.63" x2="462.63" y1="165.00" y2="175.00" stroke="#172033" stroke-width="1.4" opacity="0.85"/>
<line x1="560.65" x2="560.65" y1="165.00" y2="175.00" stroke="#172033" stroke-width="1.4" opacity="0.85"/>
<text x="993.00" y="176.00" text-anchor="start" font-family="Arial, sans-serif" font-size="17" font-weight="700" fill="#172033">OR 4.77; FDR &lt;0.001 *</text>
<text x="354.00" y="230.00" text-anchor="end" font-family="Arial, sans-serif" font-size="18" font-weight="400" fill="#172033">wayfinding signage</text>
<rect x="370.00" y="215.00" width="151.28" height="18" rx="3" fill="#9a031e" opacity="0.78"/>
<line x1="477.80" x2="582.12" y1="224.00" y2="224.00" stroke="#172033" stroke-width="1.4" opacity="0.85"/>
<line x1="477.80" x2="477.80" y1="219.00" y2="229.00" stroke="#172033" stroke-width="1.4" opacity="0.85"/>
<line x1="582.12" x2="582.12" y1="219.00" y2="229.00" stroke="#172033" stroke-width="1.4" opacity="0.85"/>
<text x="993.00" y="230.00" text-anchor="start" font-family="Arial, sans-serif" font-size="17" font-weight="700" fill="#172033">OR 2.14; FDR 0.049 *</text>
<text x="354.00" y="284.00" text-anchor="end" font-family="Arial, sans-serif" font-size="18" font-weight="400" fill="#172033">booking ticketing</text>
<rect x="370.00" y="269.00" width="183.36" height="18" rx="3" fill="#bc6c25" opacity="0.78"/>
<line x1="504.78" x2="619.27" y1="278.00" y2="278.00" stroke="#172033" stroke-width="1.4" opacity="0.85"/>
<line x1="504.78" x2="504.78" y1="273.00" y2="283.00" stroke="#172033" stroke-width="1.4" opacity="0.85"/>
<line x1="619.27" x2="619.27" y1="273.00" y2="283.00" stroke="#172033" stroke-width="1.4" opacity="0.85"/>
<text x="993.00" y="284.00" text-anchor="start" font-family="Arial, sans-serif" font-size="17" font-weight="400" fill="#172033">OR 1.61; FDR 0.114</text>
<text x="354.00" y="338.00" text-anchor="end" font-family="Arial, sans-serif" font-size="18" font-weight="400" fill="#172033">transport access</text>
<rect x="370.00" y="323.00" width="252.13" height="18" rx="3" fill="#bc6c25" opacity="0.78"/>
<line x1="563.93" x2="697.55" y1="332.00" y2="332.00" stroke="#172033" stroke-width="1.4" opacity="0.85"/>
<line x1="563.93" x2="563.93" y1="327.00" y2="337.00" stroke="#172033" stroke-width="1.4" opacity="0.85"/>
<line x1="697.55" x2="697.55" y1="327.00" y2="337.00" stroke="#172033" stroke-width="1.4" opacity="0.85"/>
<text x="993.00" y="338.00" text-anchor="start" font-family="Arial, sans-serif" font-size="17" font-weight="400" fill="#172033">OR 0.95; FDR 0.238</text>
<text x="354.00" y="392.00" text-anchor="end" font-family="Arial, sans-serif" font-size="18" font-weight="400" fill="#172033">opening hours availability</text>
<rect x="370.00" y="377.00" width="430.90" height="18" rx="3" fill="#9a031e" opacity="0.78"/>
<line x1="722.68" x2="896.09" y1="386.00" y2="386.00" stroke="#172033" stroke-width="1.4" opacity="0.85"/>
<line x1="722.68" x2="722.68" y1="381.00" y2="391.00" stroke="#172033" stroke-width="1.4" opacity="0.85"/>
<line x1="896.09" x2="896.09" y1="381.00" y2="391.00" stroke="#172033" stroke-width="1.4" opacity="0.85"/>
<text x="993.00" y="392.00" text-anchor="start" font-family="Arial, sans-serif" font-size="17" font-weight="700" fill="#172033">OR 3.82; FDR &lt;0.001 *</text>
<text x="672.50" y="470.00" text-anchor="middle" font-family="Arial, sans-serif" font-size="20" font-weight="700" fill="#172033">Pooled prevalence with Wilson 95% CI</text>
<text x="24.00" y="501.00" text-anchor="start" font-family="Arial, sans-serif" font-size="16" font-weight="400" fill="#5b677a">Asterisk marks BH-FDR significance; rare or underpowered levers remain visible with uncertainty.</text>
</svg>