<svg xmlns="http://www.w3.org/2000/svg" width="1000" height="760" viewBox="0 0 1000 760">
<rect width="100%" height="100%" fill="#fbfaf7"/>
<text x="32" y="38" font-family="Arial, sans-serif" font-size="24" font-weight="700" fill="#1f2933">Most Common Reviewed Sentiment Keywords by Group</text>
<text x="32" y="66" font-family="Arial, sans-serif" font-size="14" fill="#52616b">Top matched terms within each reviewed sentiment-evidence group; n=1,670 Chinese rows</text>
<text x="286" y="118" text-anchor="end" font-family="Arial, sans-serif" font-size="13" fill="#1f2933">Positive: 好</text>
<rect x="300" y="103" width="630.00" height="18" rx="3" fill="#2f6f73"/>
<text x="938.0" y="118" font-family="Arial, sans-serif" font-size="12" fill="#1f2933">455</text>
<text x="286" y="152" text-anchor="end" font-family="Arial, sans-serif" font-size="13" fill="#1f2933">Positive: 美</text>
<rect x="300" y="137" width="214.62" height="18" rx="3" fill="#2f6f73"/>
<text x="522.6153846153846" y="152" font-family="Arial, sans-serif" font-size="12" fill="#1f2933">155</text>
<text x="286" y="186" text-anchor="end" font-family="Arial, sans-serif" font-size="13" fill="#1f2933">Positive: 喜欢</text>
<rect x="300" y="171" width="87.23" height="18" rx="3" fill="#2f6f73"/>
<text x="395.2307692307692" y="186" font-family="Arial, sans-serif" font-size="12" fill="#1f2933">63</text>
<text x="286" y="220" text-anchor="end" font-family="Arial, sans-serif" font-size="13" fill="#1f2933">Positive: 推荐</text>
<rect x="300" y="205" width="62.31" height="18" rx="3" fill="#2f6f73"/>
<text x="370.3076923076923" y="220" font-family="Arial, sans-serif" font-size="12" fill="#1f2933">45</text>
<text x="286" y="254" text-anchor="end" font-family="Arial, sans-serif" font-size="13" fill="#1f2933">Positive: 很好</text>
<rect x="300" y="239" width="48.46" height="18" rx="3" fill="#2f6f73"/>
<text x="356.46153846153845" y="254" font-family="Arial, sans-serif" font-size="12" fill="#1f2933">35</text>
<text x="286" y="288" text-anchor="end" font-family="Arial, sans-serif" font-size="13" fill="#1f2933">Positive: 好吃</text>
<rect x="300" y="273" width="40.15" height="18" rx="3" fill="#2f6f73"/>
<text x="348.15384615384613" y="288" font-family="Arial, sans-serif" font-size="12" fill="#1f2933">29</text>
<text x="286" y="322" text-anchor="end" font-family="Arial, sans-serif" font-size="13" fill="#1f2933">Recommendation: 推荐</text>
<rect x="300" y="307" width="62.31" height="18" rx="3" fill="#bc6c25"/>
<text x="370.3076923076923" y="322" font-family="Arial, sans-serif" font-size="12" fill="#1f2933">45</text>
<text x="286" y="356" text-anchor="end" font-family="Arial, sans-serif" font-size="13" fill="#1f2933">Recommendation: 一定要去</text>
<rect x="300" y="341" width="42.92" height="18" rx="3" fill="#bc6c25"/>
<text x="350.9230769230769" y="356" font-family="Arial, sans-serif" font-size="12" fill="#1f2933">31</text>
<text x="286" y="390" text-anchor="end" font-family="Arial, sans-serif" font-size="13" fill="#1f2933">Recommendation: 值得去</text>
<rect x="300" y="375" width="5.54" height="18" rx="3" fill="#bc6c25"/>
<text x="313.53846153846155" y="390" font-family="Arial, sans-serif" font-size="12" fill="#1f2933">4</text>
<text x="286" y="424" text-anchor="end" font-family="Arial, sans-serif" font-size="13" fill="#1f2933">Recommendation: 必去</text>
<rect x="300" y="409" width="2.77" height="18" rx="3" fill="#bc6c25"/>
<text x="310.7692307692308" y="424" font-family="Arial, sans-serif" font-size="12" fill="#1f2933">2</text>
<text x="286" y="458" text-anchor="end" font-family="Arial, sans-serif" font-size="13" fill="#1f2933">Recommendation: 值得一看</text>
<rect x="300" y="443" width="1.38" height="18" rx="3" fill="#bc6c25"/>
<text x="309.38461538461536" y="458" font-family="Arial, sans-serif" font-size="12" fill="#1f2933">1</text>
<text x="286" y="492" text-anchor="end" font-family="Arial, sans-serif" font-size="13" fill="#1f2933">Recommendation: 还会再来</text>
<rect x="300" y="477" width="1.38" height="18" rx="3" fill="#bc6c25"/>
<text x="309.38461538461536" y="492" font-family="Arial, sans-serif" font-size="12" fill="#1f2933">1</text>
<text x="286" y="526" text-anchor="end" font-family="Arial, sans-serif" font-size="13" fill="#1f2933">Negative: 差</text>
<rect x="300" y="511" width="31.85" height="18" rx="3" fill="#5b6c94"/>
<text x="339.84615384615387" y="526" font-family="Arial, sans-serif" font-size="12" fill="#1f2933">23</text>
<text x="286" y="560" text-anchor="end" font-family="Arial, sans-serif" font-size="13" fill="#1f2933">Negative: 贵</text>
<rect x="300" y="545" width="23.54" height="18" rx="3" fill="#5b6c94"/>
<text x="331.53846153846155" y="560" font-family="Arial, sans-serif" font-size="12" fill="#1f2933">17</text>
<text x="286" y="594" text-anchor="end" font-family="Arial, sans-serif" font-size="13" fill="#1f2933">Negative: 一般</text>
<rect x="300" y="579" width="12.46" height="18" rx="3" fill="#5b6c94"/>
<text x="320.46153846153845" y="594" font-family="Arial, sans-serif" font-size="12" fill="#1f2933">9</text>
<text x="286" y="628" text-anchor="end" font-family="Arial, sans-serif" font-size="13" fill="#1f2933">Negative: 坑</text>
<rect x="300" y="613" width="6.92" height="18" rx="3" fill="#5b6c94"/>
<text x="314.9230769230769" y="628" font-family="Arial, sans-serif" font-size="12" fill="#1f2933">5</text>
<text x="286" y="662" text-anchor="end" font-family="Arial, sans-serif" font-size="13" fill="#1f2933">Negative: 关门</text>
<rect x="300" y="647" width="5.54" height="18" rx="3" fill="#5b6c94"/>
<text x="313.53846153846155" y="662" font-family="Arial, sans-serif" font-size="12" fill="#1f2933">4</text>
<text x="286" y="696" text-anchor="end" font-family="Arial, sans-serif" font-size="13" fill="#1f2933">Negative: 不方便</text>
<rect x="300" y="681" width="4.15" height="18" rx="3" fill="#5b6c94"/>
<text x="312.15384615384613" y="696" font-family="Arial, sans-serif" font-size="12" fill="#1f2933">3</text>
<rect x="300" y="728" width="10" height="10" fill="#2f6f73"/>
<text x="316" y="738" font-family="Arial, sans-serif" font-size="12" fill="#52616b">Positive</text>
<rect x="382" y="728" width="10" height="10" fill="#bc6c25"/>
<text x="398" y="738" font-family="Arial, sans-serif" font-size="12" fill="#52616b">Recommendation</text>
<rect x="512" y="728" width="10" height="10" fill="#5b6c94"/>
<text x="528" y="738" font-family="Arial, sans-serif" font-size="12" fill="#52616b">Negative</text>
</svg>