<svg xmlns="http://www.w3.org/2000/svg" width="1000" height="760" viewBox="0 0 1000 760">
<rect width="100%" height="100%" fill="#fbfaf7"/>
<text x="32" y="38" font-family="Arial, sans-serif" font-size="24" font-weight="700" fill="#1f2933">Most Common Reviewed Sentiment Keywords by Group</text>
<text x="32" y="66" font-family="Arial, sans-serif" font-size="14" fill="#52616b">Top matched terms within each reviewed sentiment-evidence group; n=200 Chinese rows</text>
<line x1="300.00" x2="300.00" y1="92.00" y2="704.00" stroke="#d7dde8" stroke-width="1" opacity="0.58"/>
<line x1="615.00" x2="615.00" y1="92.00" y2="704.00" stroke="#d7dde8" stroke-width="1" opacity="0.58"/>
<line x1="930.00" x2="930.00" y1="92.00" y2="704.00" stroke="#d7dde8" stroke-width="1" opacity="0.58"/>
<text x="286" y="118" text-anchor="end" font-family="Arial, sans-serif" font-size="13" fill="#1f2933">Positive: 好</text>
<rect x="300" y="103" width="630.00" height="18" rx="3" fill="#2f6f73"/>
<text x="938.0" y="118" font-family="Arial, sans-serif" font-size="12" fill="#1f2933">130</text>
<text x="286" y="152" text-anchor="end" font-family="Arial, sans-serif" font-size="13" fill="#1f2933">Positive: 美</text>
<rect x="300" y="137" width="397.38" height="18" rx="3" fill="#2f6f73"/>
<rect x="701.38" y="137.00" width="34.00" height="22.00" rx="4" fill="#fbfaf7" stroke="#d7dde8" stroke-width="1"/>
<text x="718.38" y="152.00" text-anchor="middle" font-family="Arial, sans-serif" font-size="12" font-weight="400" fill="#1f2933">82</text>
<text x="286" y="186" text-anchor="end" font-family="Arial, sans-serif" font-size="13" fill="#1f2933">Positive: 推荐</text>
<rect x="300" y="171" width="222.92" height="18" rx="3" fill="#2f6f73"/>
<rect x="526.92" y="171.00" width="34.00" height="22.00" rx="4" fill="#fbfaf7" stroke="#d7dde8" stroke-width="1"/>
<text x="543.92" y="186.00" text-anchor="middle" font-family="Arial, sans-serif" font-size="12" font-weight="400" fill="#1f2933">46</text>
<text x="286" y="220" text-anchor="end" font-family="Arial, sans-serif" font-size="13" fill="#1f2933">Positive: 喜欢</text>
<rect x="300" y="205" width="169.62" height="18" rx="3" fill="#2f6f73"/>
<rect x="473.62" y="205.00" width="34.00" height="22.00" rx="4" fill="#fbfaf7" stroke="#d7dde8" stroke-width="1"/>
<text x="490.62" y="220.00" text-anchor="middle" font-family="Arial, sans-serif" font-size="12" font-weight="400" fill="#1f2933">35</text>
<text x="286" y="254" text-anchor="end" font-family="Arial, sans-serif" font-size="13" fill="#1f2933">Positive: 好吃</text>
<rect x="300" y="239" width="140.54" height="18" rx="3" fill="#2f6f73"/>
<rect x="444.54" y="239.00" width="34.00" height="22.00" rx="4" fill="#fbfaf7" stroke="#d7dde8" stroke-width="1"/>
<text x="461.54" y="254.00" text-anchor="middle" font-family="Arial, sans-serif" font-size="12" font-weight="400" fill="#1f2933">29</text>
<text x="286" y="288" text-anchor="end" font-family="Arial, sans-serif" font-size="13" fill="#1f2933">Positive: 很好</text>
<rect x="300" y="273" width="116.31" height="18" rx="3" fill="#2f6f73"/>
<rect x="420.31" y="273.00" width="34.00" height="22.00" rx="4" fill="#fbfaf7" stroke="#d7dde8" stroke-width="1"/>
<text x="437.31" y="288.00" text-anchor="middle" font-family="Arial, sans-serif" font-size="12" font-weight="400" fill="#1f2933">24</text>
<text x="286" y="322" text-anchor="end" font-family="Arial, sans-serif" font-size="13" fill="#1f2933">Recommendation: 推荐</text>
<rect x="300" y="307" width="222.92" height="18" rx="3" fill="#bc6c25"/>
<rect x="526.92" y="307.00" width="34.00" height="22.00" rx="4" fill="#fbfaf7" stroke="#d7dde8" stroke-width="1"/>
<text x="543.92" y="322.00" text-anchor="middle" font-family="Arial, sans-serif" font-size="12" font-weight="400" fill="#1f2933">46</text>
<text x="286" y="356" text-anchor="end" font-family="Arial, sans-serif" font-size="13" fill="#1f2933">Recommendation: 一定要去</text>
<rect x="300" y="341" width="14.54" height="18" rx="3" fill="#bc6c25"/>
<rect x="318.54" y="341.00" width="34.00" height="22.00" rx="4" fill="#fbfaf7" stroke="#d7dde8" stroke-width="1"/>
<text x="335.54" y="356.00" text-anchor="middle" font-family="Arial, sans-serif" font-size="12" font-weight="400" fill="#1f2933">3</text>
<text x="286" y="390" text-anchor="end" font-family="Arial, sans-serif" font-size="13" fill="#1f2933">Recommendation: 值得去</text>
<rect x="300" y="375" width="14.54" height="18" rx="3" fill="#bc6c25"/>
<rect x="318.54" y="375.00" width="34.00" height="22.00" rx="4" fill="#fbfaf7" stroke="#d7dde8" stroke-width="1"/>
<text x="335.54" y="390.00" text-anchor="middle" font-family="Arial, sans-serif" font-size="12" font-weight="400" fill="#1f2933">3</text>
<text x="286" y="424" text-anchor="end" font-family="Arial, sans-serif" font-size="13" fill="#1f2933">Recommendation: 必去</text>
<rect x="300" y="409" width="9.69" height="18" rx="3" fill="#bc6c25"/>
<rect x="313.69" y="409.00" width="34.00" height="22.00" rx="4" fill="#fbfaf7" stroke="#d7dde8" stroke-width="1"/>
<text x="330.69" y="424.00" text-anchor="middle" font-family="Arial, sans-serif" font-size="12" font-weight="400" fill="#1f2933">2</text>
<text x="286" y="458" text-anchor="end" font-family="Arial, sans-serif" font-size="13" fill="#1f2933">Recommendation: 不要错过</text>
<rect x="300" y="443" width="4.85" height="18" rx="3" fill="#bc6c25"/>
<rect x="308.85" y="443.00" width="34.00" height="22.00" rx="4" fill="#fbfaf7" stroke="#d7dde8" stroke-width="1"/>
<text x="325.85" y="458.00" text-anchor="middle" font-family="Arial, sans-serif" font-size="12" font-weight="400" fill="#1f2933">1</text>
<text x="286" y="492" text-anchor="end" font-family="Arial, sans-serif" font-size="13" fill="#1f2933">Recommendation: 值得一看</text>
<rect x="300" y="477" width="4.85" height="18" rx="3" fill="#bc6c25"/>
<rect x="308.85" y="477.00" width="34.00" height="22.00" rx="4" fill="#fbfaf7" stroke="#d7dde8" stroke-width="1"/>
<text x="325.85" y="492.00" text-anchor="middle" font-family="Arial, sans-serif" font-size="12" font-weight="400" fill="#1f2933">1</text>
<text x="286" y="526" text-anchor="end" font-family="Arial, sans-serif" font-size="13" fill="#1f2933">Negative: 差</text>
<rect x="300" y="511" width="92.08" height="18" rx="3" fill="#5b6c94"/>
<rect x="396.08" y="511.00" width="34.00" height="22.00" rx="4" fill="#fbfaf7" stroke="#d7dde8" stroke-width="1"/>
<text x="413.08" y="526.00" text-anchor="middle" font-family="Arial, sans-serif" font-size="12" font-weight="400" fill="#1f2933">19</text>
<text x="286" y="560" text-anchor="end" font-family="Arial, sans-serif" font-size="13" fill="#1f2933">Negative: 贵</text>
<rect x="300" y="545" width="82.38" height="18" rx="3" fill="#5b6c94"/>
<rect x="386.38" y="545.00" width="34.00" height="22.00" rx="4" fill="#fbfaf7" stroke="#d7dde8" stroke-width="1"/>
<text x="403.38" y="560.00" text-anchor="middle" font-family="Arial, sans-serif" font-size="12" font-weight="400" fill="#1f2933">17</text>
<text x="286" y="594" text-anchor="end" font-family="Arial, sans-serif" font-size="13" fill="#1f2933">Negative: 一般</text>
<rect x="300" y="579" width="72.69" height="18" rx="3" fill="#5b6c94"/>
<rect x="376.69" y="579.00" width="34.00" height="22.00" rx="4" fill="#fbfaf7" stroke="#d7dde8" stroke-width="1"/>
<text x="393.69" y="594.00" text-anchor="middle" font-family="Arial, sans-serif" font-size="12" font-weight="400" fill="#1f2933">15</text>
<text x="286" y="628" text-anchor="end" font-family="Arial, sans-serif" font-size="13" fill="#1f2933">Negative: 关门</text>
<rect x="300" y="613" width="29.08" height="18" rx="3" fill="#5b6c94"/>
<rect x="333.08" y="613.00" width="34.00" height="22.00" rx="4" fill="#fbfaf7" stroke="#d7dde8" stroke-width="1"/>
<text x="350.08" y="628.00" text-anchor="middle" font-family="Arial, sans-serif" font-size="12" font-weight="400" fill="#1f2933">6</text>
<text x="286" y="662" text-anchor="end" font-family="Arial, sans-serif" font-size="13" fill="#1f2933">Negative: 不方便</text>
<rect x="300" y="647" width="19.38" height="18" rx="3" fill="#5b6c94"/>
<rect x="323.38" y="647.00" width="34.00" height="22.00" rx="4" fill="#fbfaf7" stroke="#d7dde8" stroke-width="1"/>
<text x="340.38" y="662.00" text-anchor="middle" font-family="Arial, sans-serif" font-size="12" font-weight="400" fill="#1f2933">4</text>
<text x="286" y="696" text-anchor="end" font-family="Arial, sans-serif" font-size="13" fill="#1f2933">Negative: 失望</text>
<rect x="300" y="681" width="14.54" height="18" rx="3" fill="#5b6c94"/>
<rect x="318.54" y="681.00" width="34.00" height="22.00" rx="4" fill="#fbfaf7" stroke="#d7dde8" stroke-width="1"/>
<text x="335.54" y="696.00" text-anchor="middle" font-family="Arial, sans-serif" font-size="12" font-weight="400" fill="#1f2933">3</text>
<rect x="300" y="728" width="10" height="10" fill="#2f6f73"/>
<text x="316" y="738" font-family="Arial, sans-serif" font-size="12" fill="#52616b">Positive</text>
<rect x="382" y="728" width="10" height="10" fill="#bc6c25"/>
<text x="398" y="738" font-family="Arial, sans-serif" font-size="12" fill="#52616b">Recommendation</text>
<rect x="512" y="728" width="10" height="10" fill="#5b6c94"/>
<text x="528" y="738" font-family="Arial, sans-serif" font-size="12" fill="#52616b">Negative</text>
</svg>