<svg xmlns="http://www.w3.org/2000/svg" width="1000" height="618" viewBox="0 0 1000 618">
<rect width="100%" height="100%" fill="#fbfaf7"/>
<text x="32" y="38" font-family="Arial, sans-serif" font-size="24" font-weight="700" fill="#1f2933">Chinese Topic Evidence by Sentiment</text>
<text x="32" y="66" font-family="Arial, sans-serif" font-size="14" fill="#52616b">Topic keyword matches across n=200 rows; positive n=162, negative n=36</text>
<text x="266" y="126" text-anchor="end" font-family="Arial, sans-serif" font-size="13" fill="#1f2933">Temples / Spiritual</text>
<rect x="280" y="107" width="640.00" height="14" rx="3" fill="#2f6f73"/>
<rect x="280" y="125" width="89.11" height="14" rx="3" fill="#9a031e"/>
<text x="928.0" y="119" font-family="Arial, sans-serif" font-size="11" fill="#1f2933">79</text>
<text x="377.11392405063293" y="137" font-family="Arial, sans-serif" font-size="11" fill="#1f2933">11</text>
<text x="266" y="172" text-anchor="end" font-family="Arial, sans-serif" font-size="13" fill="#1f2933">History / Culture</text>
<rect x="280" y="153" width="558.99" height="14" rx="3" fill="#2f6f73"/>
<rect x="280" y="171" width="56.71" height="14" rx="3" fill="#9a031e"/>
<text x="846.9873417721519" y="165" font-family="Arial, sans-serif" font-size="11" fill="#1f2933">69</text>
<text x="344.7088607594937" y="183" font-family="Arial, sans-serif" font-size="11" fill="#1f2933">7</text>
<text x="266" y="218" text-anchor="end" font-family="Arial, sans-serif" font-size="13" fill="#1f2933">Fan Pilgrimage / Pop Culture</text>
<rect x="280" y="199" width="413.16" height="14" rx="3" fill="#2f6f73"/>
<rect x="280" y="217" width="145.82" height="14" rx="3" fill="#9a031e"/>
<text x="701.1645569620252" y="211" font-family="Arial, sans-serif" font-size="11" fill="#1f2933">51</text>
<text x="433.82278481012656" y="229" font-family="Arial, sans-serif" font-size="11" fill="#1f2933">18</text>
<text x="266" y="264" text-anchor="end" font-family="Arial, sans-serif" font-size="13" fill="#1f2933">Scenic Nature</text>
<rect x="280" y="245" width="502.28" height="14" rx="3" fill="#2f6f73"/>
<rect x="280" y="263" width="40.51" height="14" rx="3" fill="#9a031e"/>
<text x="790.2784810126582" y="257" font-family="Arial, sans-serif" font-size="11" fill="#1f2933">62</text>
<text x="328.50632911392404" y="275" font-family="Arial, sans-serif" font-size="11" fill="#1f2933">5</text>
<text x="266" y="310" text-anchor="end" font-family="Arial, sans-serif" font-size="13" fill="#1f2933">Food / Local Cuisine</text>
<rect x="280" y="291" width="315.95" height="14" rx="3" fill="#2f6f73"/>
<rect x="280" y="309" width="72.91" height="14" rx="3" fill="#9a031e"/>
<text x="603.9493670886077" y="303" font-family="Arial, sans-serif" font-size="11" fill="#1f2933">39</text>
<text x="360.9113924050633" y="321" font-family="Arial, sans-serif" font-size="11" fill="#1f2933">9</text>
<text x="266" y="356" text-anchor="end" font-family="Arial, sans-serif" font-size="13" fill="#1f2933">Dinosaurs / Museums</text>
<rect x="280" y="337" width="340.25" height="14" rx="3" fill="#2f6f73"/>
<rect x="280" y="355" width="8.10" height="14" rx="3" fill="#9a031e"/>
<text x="628.253164556962" y="349" font-family="Arial, sans-serif" font-size="11" fill="#1f2933">42</text>
<text x="296.1012658227848" y="367" font-family="Arial, sans-serif" font-size="11" fill="#1f2933">1</text>
<text x="266" y="402" text-anchor="end" font-family="Arial, sans-serif" font-size="13" fill="#1f2933">Hot Springs / Relaxation</text>
<rect x="280" y="383" width="299.75" height="14" rx="3" fill="#2f6f73"/>
<rect x="280" y="401" width="48.61" height="14" rx="3" fill="#9a031e"/>
<text x="587.746835443038" y="395" font-family="Arial, sans-serif" font-size="11" fill="#1f2933">37</text>
<text x="336.6075949367089" y="413" font-family="Arial, sans-serif" font-size="11" fill="#1f2933">6</text>
<text x="266" y="448" text-anchor="end" font-family="Arial, sans-serif" font-size="13" fill="#1f2933">Seasonal Events</text>
<rect x="280" y="429" width="267.34" height="14" rx="3" fill="#2f6f73"/>
<rect x="280" y="447" width="32.41" height="14" rx="3" fill="#9a031e"/>
<text x="555.3417721518988" y="441" font-family="Arial, sans-serif" font-size="11" fill="#1f2933">33</text>
<text x="320.40506329113924" y="459" font-family="Arial, sans-serif" font-size="11" fill="#1f2933">4</text>
<text x="266" y="494" text-anchor="end" font-family="Arial, sans-serif" font-size="13" fill="#1f2933">Accommodation</text>
<rect x="280" y="475" width="234.94" height="14" rx="3" fill="#2f6f73"/>
<rect x="280" y="493" width="48.61" height="14" rx="3" fill="#9a031e"/>
<text x="522.9367088607595" y="487" font-family="Arial, sans-serif" font-size="11" fill="#1f2933">29</text>
<text x="336.6075949367089" y="505" font-family="Arial, sans-serif" font-size="11" fill="#1f2933">6</text>
<text x="266" y="540" text-anchor="end" font-family="Arial, sans-serif" font-size="13" fill="#1f2933">Crafts / Shopping</text>
<rect x="280" y="521" width="243.04" height="14" rx="3" fill="#2f6f73"/>
<rect x="280" y="539" width="32.41" height="14" rx="3" fill="#9a031e"/>
<text x="531.0379746835443" y="533" font-family="Arial, sans-serif" font-size="11" fill="#1f2933">30</text>
<text x="320.40506329113924" y="551" font-family="Arial, sans-serif" font-size="11" fill="#1f2933">4</text>
<rect x="280" y="580" width="10" height="10" fill="#2f6f73"/>
<text x="296" y="590" font-family="Arial, sans-serif" font-size="12" fill="#52616b">positive SnowNLP rows</text>
<rect x="470" y="580" width="10" height="10" fill="#9a031e"/>
<text x="486" y="590" font-family="Arial, sans-serif" font-size="12" fill="#52616b">negative SnowNLP rows</text>
</svg>