<svg xmlns="http://www.w3.org/2000/svg" width="1000" height="348" viewBox="0 0 1000 348">
<rect width="100%" height="100%" fill="#fbfaf7"/>
<text x="32" y="38" font-family="Arial, sans-serif" font-size="30" font-weight="700" fill="#1f2933">English-Language Reviews Tourism Priority Mix</text>
<text x="32" y="66" font-family="Arial, sans-serif" font-size="18" fill="#52616b">Google review POI-category distribution; n=214 rows</text>
<line x1="270.00" x2="270.00" y1="96.00" y2="284.00" stroke="#d7dde8" stroke-width="1" opacity="0.58"/>
<line x1="590.00" x2="590.00" y1="96.00" y2="284.00" stroke="#d7dde8" stroke-width="1" opacity="0.58"/>
<line x1="910.00" x2="910.00" y1="96.00" y2="284.00" stroke="#d7dde8" stroke-width="1" opacity="0.58"/>
<text x="256" y="123" text-anchor="end" font-family="Arial, sans-serif" font-size="16" fill="#1f2933">castle historic</text>
<rect x="270" y="108" width="640.00" height="20" rx="3" fill="#2f6f73"/>
<text x="918.0" y="123" font-family="Arial, sans-serif" font-size="16" fill="#1f2933">54 (25.2%)</text>
<text x="256" y="161" text-anchor="end" font-family="Arial, sans-serif" font-size="16" fill="#1f2933">temple shrine</text>
<rect x="270" y="146" width="616.30" height="20" rx="3" fill="#2f6f73"/>
<text x="894.2962962962963" y="161" font-family="Arial, sans-serif" font-size="16" fill="#1f2933">52 (24.3%)</text>
<text x="256" y="199" text-anchor="end" font-family="Arial, sans-serif" font-size="16" fill="#1f2933">museum cultural</text>
<rect x="270" y="184" width="485.93" height="20" rx="3" fill="#2f6f73"/>
<rect x="759.93" y="184.00" width="102.40" height="22.00" rx="4" fill="#fbfaf7" stroke="#d7dde8" stroke-width="1"/>
<text x="811.13" y="199.00" text-anchor="middle" font-family="Arial, sans-serif" font-size="16" font-weight="400" fill="#1f2933">41 (19.2%)</text>
<text x="256" y="237" text-anchor="end" font-family="Arial, sans-serif" font-size="16" fill="#1f2933">nature scenic</text>
<rect x="270" y="222" width="438.52" height="20" rx="3" fill="#2f6f73"/>
<rect x="712.52" y="222.00" width="102.40" height="22.00" rx="4" fill="#fbfaf7" stroke="#d7dde8" stroke-width="1"/>
<text x="763.72" y="237.00" text-anchor="middle" font-family="Arial, sans-serif" font-size="16" font-weight="400" fill="#1f2933">37 (17.3%)</text>
<text x="256" y="275" text-anchor="end" font-family="Arial, sans-serif" font-size="16" fill="#1f2933">market shopping</text>
<rect x="270" y="260" width="355.56" height="20" rx="3" fill="#2f6f73"/>
<rect x="629.56" y="260.00" width="102.40" height="22.00" rx="4" fill="#fbfaf7" stroke="#d7dde8" stroke-width="1"/>
<text x="680.76" y="275.00" text-anchor="middle" font-family="Arial, sans-serif" font-size="16" font-weight="400" fill="#1f2933">30 (14.0%)</text>
</svg>